COMMENT vga
STARTFONT 2.1
FONT vga
SIZE 14 75 75
FONTBOUNDINGBOX 8 14 0 -4
STARTPROPERTIES 3
FONT_DESCENT 4
FONT_ASCENT 10
AVERAGE_WIDTH 80
DEFAULT_CHAR 0
ENDPROPERTIES
CHARS 292
STARTCHAR u0419
ENCODING 1049
SWIDTH 666 0
DWIDTH 8 0
BBX 8 14 0 -4
BITMAP
38
38
C6
C6
CE
CE
D6
E6
E6
C6
C6
C6
00
00
ENDCHAR
STARTCHAR u007F
ENCODING 127
SWIDTH 666 0
DWIDTH 8 0
BBX 8 14 0 -4
BITMAP
00
00
00
00
10
38
6C
C6
C6
C6
FE
00
00
00
ENDCHAR
STARTCHAR u0020
ENCODING 32
SWIDTH 666 0
DWIDTH 8 0
BBX 8 14 0 -4
BITMAP
00
00
00
00
00
00
00
00
00
00
00
00
00
00
ENDCHAR
STARTCHAR u005A
ENCODING 90
SWIDTH 666 0
DWIDTH 8 0
BBX 8 14 0 -4
BITMAP
00
00
FE
C6
86
0C
18
30
60
C2
C6
FE
00
00
ENDCHAR
STARTCHAR u2265
ENCODING 8805
SWIDTH 666 0
DWIDTH 8 0
BBX 8 14 0 -4
BITMAP
00
00
00
30
18
0C
06
0C
18
30
00
7E
00
00
ENDCHAR
STARTCHAR u0076
ENCODING 118
SWIDTH 666 0
DWIDTH 8 0
BBX 8 14 0 -4
BITMAP
00
00
00
00
00
66
66
66
66
66
3C
18
00
00
ENDCHAR
STARTCHAR u0047
ENCODING 71
SWIDTH 666 0
DWIDTH 8 0
BBX 8 14 0 -4
BITMAP
00
00
3C
66
C2
C0
C0
DE
C6
C6
66
3A
00
00
ENDCHAR
STARTCHAR u0066
ENCODING 102
SWIDTH 666 0
DWIDTH 8 0
BBX 8 14 0 -4
BITMAP
00
00
38
6C
64
60
F0
60
60
60
60
F0
00
00
ENDCHAR
STARTCHAR u0429
ENCODING 1065
SWIDTH 666 0
DWIDTH 8 0
BBX 8 14 0 -4
BITMAP
00
00
DB
DB
DB
DB
DB
DB
DB
DB
DB
FF
03
00
ENDCHAR
STARTCHAR u041A
ENCODING 1050
SWIDTH 666 0
DWIDTH 8 0
BBX 8 14 0 -4
BITMAP
00
00
E6
66
6C
6C
78
78
6C
6C
66
E6
00
00
ENDCHAR
STARTCHAR u0415
ENCODING 1045
SWIDTH 666 0
DWIDTH 8 0
BBX 8 14 0 -4
BITMAP
00
00
FE
66
62
68
78
68
60
62
66
FE
00
00
ENDCHAR
STARTCHAR u221A
ENCODING 8730
SWIDTH 666 0
DWIDTH 8 0
BBX 8 14 0 -4
BITMAP
00
00
01
03
02
06
04
4C
68
38
10
00
00
00
ENDCHAR
STARTCHAR u0010
ENCODING 16
SWIDTH 666 0
DWIDTH 8 0
BBX 8 14 0 -4
BITMAP
00
80
C0
E0
F0
F8
FC
F8
F0
E0
C0
80
00
00
ENDCHAR
STARTCHAR u0037
ENCODING 55
SWIDTH 666 0
DWIDTH 8 0
BBX 8 14 0 -4
BITMAP
00
00
FE
C6
06
06
0C
18
30
30
30
30
00
00
ENDCHAR
STARTCHAR u0054
ENCODING 84
SWIDTH 666 0
DWIDTH 8 0
BBX 8 14 0 -4
BITMAP
00
00
7E
7E
5A
18
18
18
18
18
18
3C
00
00
ENDCHAR
STARTCHAR u042D
ENCODING 1069
SWIDTH 666 0
DWIDTH 8 0
BBX 8 14 0 -4
BITMAP
00
00
7C
C6
06
26
3E
26
06
06
C6
7C
00
00
ENDCHAR
STARTCHAR u0039
ENCODING 57
SWIDTH 666 0
DWIDTH 8 0
BBX 8 14 0 -4
BITMAP
00
00
7C
C6
C6
C6
7E
06
06
06
0C
78
00
00
ENDCHAR
STARTCHAR u2190
ENCODING 8592
SWIDTH 666 0
DWIDTH 8 0
BBX 8 14 0 -4
BITMAP
00
00
00
00
00
30
60
FE
60
30
00
00
00
00
ENDCHAR
STARTCHAR u2514
ENCODING 9492
SWIDTH 666 0
DWIDTH 8 0
BBX 8 14 0 -4
BITMAP
18
18
18
18
18
18
18
1F
00
00
00
00
00
00
ENDCHAR
STARTCHAR u0059
ENCODING 89
SWIDTH 666 0
DWIDTH 8 0
BBX 8 14 0 -4
BITMAP
00
00
66
66
66
66
3C
18
18
18
18
3C
00
00
ENDCHAR
STARTCHAR u2568
ENCODING 9576
SWIDTH 666 0
DWIDTH 8 0
BBX 8 14 0 -4
BITMAP
36
36
36
36
36
36
36
FF
00
00
00
00
00
00
ENDCHAR
STARTCHAR u001F
ENCODING 31
SWIDTH 666 0
DWIDTH 8 0
BBX 8 14 0 -4
BITMAP
00
00
00
00
FE
FE
7C
7C
38
38
10
00
00
00
ENDCHAR
STARTCHAR u0023
ENCODING 35
SWIDTH 666 0
DWIDTH 8 0
BBX 8 14 0 -4
BITMAP
00
00
00
6C
6C
FE
6C
6C
6C
FE
6C
6C
00
00
ENDCHAR
STARTCHAR u000B
ENCODING 11
SWIDTH 666 0
DWIDTH 8 0
BBX 8 14 0 -4
BITMAP
00
00
1E
0E
1A
32
78
CC
CC
CC
CC
78
00
00
ENDCHAR
STARTCHAR u2665
ENCODING 9829
SWIDTH 666 0
DWIDTH 8 0
BBX 8 14 0 -4
BITMAP
00
00
00
00
6C
FE
FE
FE
FE
7C
38
10
00
00
ENDCHAR
STARTCHAR u005D
ENCODING 93
SWIDTH 666 0
DWIDTH 8 0
BBX 8 14 0 -4
BITMAP
00
00
3C
0C
0C
0C
0C
0C
0C
0C
0C
3C
00
00
ENDCHAR
STARTCHAR u001D
ENCODING 29
SWIDTH 666 0
DWIDTH 8 0
BBX 8 14 0 -4
BITMAP
00
00
00
00
00
28
6C
FE
6C
28
00
00
00
00
ENDCHAR
STARTCHAR u266A
ENCODING 9834
SWIDTH 666 0
DWIDTH 8 0
BBX 8 14 0 -4
BITMAP
00
00
3F
33
3F
30
30
30
30
70
F0
E0
00
00
ENDCHAR
STARTCHAR u0072
ENCODING 114
SWIDTH 666 0
DWIDTH 8 0
BBX 8 14 0 -4
BITMAP
00
00
00
00
00
DC
76
66
60
60
60
F0
00
00
ENDCHAR
STARTCHAR u003A
ENCODING 58
SWIDTH 666 0
DWIDTH 8 0
BBX 8 14 0 -4
BITMAP
00
00
00
00
18
18
00
00
00
18
18
00
00
00
ENDCHAR
STARTCHAR u000F
ENCODING 15
SWIDTH 666 0
DWIDTH 8 0
BBX 8 14 0 -4
BITMAP
00
00
00
18
18
DB
3C
E7
3C
DB
18
18
00
00
ENDCHAR
STARTCHAR u256A
ENCODING 9578
SWIDTH 666 0
DWIDTH 8 0
BBX 8 14 0 -4
BITMAP
18
18
18
18
18
FF
18
FF
18
18
18
18
18
18
ENDCHAR
STARTCHAR u2195
ENCODING 8597
SWIDTH 666 0
DWIDTH 8 0
BBX 8 14 0 -4
BITMAP
00
00
18
3C
7E
18
18
18
7E
3C
18
00
00
00
ENDCHAR
STARTCHAR u0443
ENCODING 1091
SWIDTH 666 0
DWIDTH 8 0
BBX 8 14 0 -4
BITMAP
00
00
00
00
00
C6
C6
C6
C6
7E
06
C6
7C
00
ENDCHAR
STARTCHAR u0065
ENCODING 101
SWIDTH 666 0
DWIDTH 8 0
BBX 8 14 0 -4
BITMAP
00
00
00
00
00
7C
C6
FE
C0
C0
C6
7C
00
00
ENDCHAR
STARTCHAR u0049
ENCODING 73
SWIDTH 666 0
DWIDTH 8 0
BBX 8 14 0 -4
BITMAP
00
00
3C
18
18
18
18
18
18
18
18
3C
00
00
ENDCHAR
STARTCHAR u004C
ENCODING 76
SWIDTH 666 0
DWIDTH 8 0
BBX 8 14 0 -4
BITMAP
00
00
F0
60
60
60
60
60
60
62
66
FE
00
00
ENDCHAR
STARTCHAR u003E
ENCODING 62
SWIDTH 666 0
DWIDTH 8 0
BBX 8 14 0 -4
BITMAP
00
00
00
60
30
18
0C
06
0C
18
30
60
00
00
ENDCHAR
STARTCHAR u0043
ENCODING 67
SWIDTH 666 0
DWIDTH 8 0
BBX 8 14 0 -4
BITMAP
00
00
3C
66
C2
C0
C0
C0
C0
C2
66
3C
00
00
ENDCHAR
STARTCHAR u044A
ENCODING 1098
SWIDTH 666 0
DWIDTH 8 0
BBX 8 14 0 -4
BITMAP
00
00
00
00
00
F8
B0
30
3E
33
33
7E
00
00
ENDCHAR
STARTCHAR u0423
ENCODING 1059
SWIDTH 666 0
DWIDTH 8 0
BBX 8 14 0 -4
BITMAP
00
00
C6
C6
C6
C6
C6
7E
06
06
C6
7C
00
00
ENDCHAR
STARTCHAR u2561
ENCODING 9569
SWIDTH 666 0
DWIDTH 8 0
BBX 8 14 0 -4
BITMAP
18
18
18
18
18
F8
18
F8
18
18
18
18
18
18
ENDCHAR
STARTCHAR u253C
ENCODING 9532
SWIDTH 666 0
DWIDTH 8 0
BBX 8 14 0 -4
BITMAP
18
18
18
18
18
18
18
FF
18
18
18
18
18
18
ENDCHAR
STARTCHAR u0438
ENCODING 1080
SWIDTH 666 0
DWIDTH 8 0
BBX 8 14 0 -4
BITMAP
00
00
00
00
00
C6
C6
CE
D6
E6
C6
C6
00
00
ENDCHAR
STARTCHAR u2580
ENCODING 9600
SWIDTH 666 0
DWIDTH 8 0
BBX 8 14 0 -4
BITMAP
FF
FF
FF
FF
FF
FF
FF
00
00
00
00
00
00
00
ENDCHAR
STARTCHAR u043B
ENCODING 1083
SWIDTH 666 0
DWIDTH 8 0
BBX 8 14 0 -4
BITMAP
00
00
00
00
00
1E
36
66
66
66
66
66
00
00
ENDCHAR
STARTCHAR u2558
ENCODING 9560
SWIDTH 666 0
DWIDTH 8 0
BBX 8 14 0 -4
BITMAP
18
18
18
18
18
1F
18
1F
00
00
00
00
00
00
ENDCHAR
STARTCHAR u000E
ENCODING 14
SWIDTH 666 0
DWIDTH 8 0
BBX 8 14 0 -4
BITMAP
00
00
7F
63
7F
63
63
63
63
67
E7
E6
C0
00
ENDCHAR
STARTCHAR u2565
ENCODING 9573
SWIDTH 666 0
DWIDTH 8 0
BBX 8 14 0 -4
BITMAP
00
00
00
00
00
00
00
FF
36
36
36
36
36
36
ENDCHAR
STARTCHAR u0031
ENCODING 49
SWIDTH 666 0
DWIDTH 8 0
BBX 8 14 0 -4
BITMAP
00
00
18
38
78
18
18
18
18
18
18
7E
00
00
ENDCHAR
STARTCHAR u00B2
ENCODING 178
SWIDTH 666 0
DWIDTH 8 0
BBX 8 14 0 -4
BITMAP
00
70
D8
30
60
C8
F8
00
00
00
00
00
00
00
ENDCHAR
STARTCHAR u0018
ENCODING 24
SWIDTH 666 0
DWIDTH 8 0
BBX 8 14 0 -4
BITMAP
00
00
18
3C
7E
18
18
18
18
18
18
18
00
00
ENDCHAR
STARTCHAR u250C
ENCODING 9484
SWIDTH 666 0
DWIDTH 8 0
BBX 8 14 0 -4
BITMAP
00
00
00
00
00
00
00
1F
18
18
18
18
18
18
ENDCHAR
STARTCHAR u2554
ENCODING 9556
SWIDTH 666 0
DWIDTH 8 0
BBX 8 14 0 -4
BITMAP
00
00
00
00
00
3F
30
37
36
36
36
36
36
36
ENDCHAR
STARTCHAR u007C
ENCODING 124
SWIDTH 666 0
DWIDTH 8 0
BBX 8 14 0 -4
BITMAP
00
00
18
18
18
18
00
18
18
18
18
18
00
00
ENDCHAR
STARTCHAR u0068
ENCODING 104
SWIDTH 666 0
DWIDTH 8 0
BBX 8 14 0 -4
BITMAP
00
00
E0
60
60
6C
76
66
66
66
66
E6
00
00
ENDCHAR
STARTCHAR u2192
ENCODING 8594
SWIDTH 666 0
DWIDTH 8 0
BBX 8 14 0 -4
BITMAP
00
00
00
00
00
18
0C
FE
0C
18
00
00
00
00
ENDCHAR
STARTCHAR u0442
ENCODING 1090
SWIDTH 666 0
DWIDTH 8 0
BBX 8 14 0 -4
BITMAP
00
00
00
00
00
7E
5A
18
18
18
18
3C
00
00
ENDCHAR
STARTCHAR u263A
ENCODING 9786
SWIDTH 666 0
DWIDTH 8 0
BBX 8 14 0 -4
BITMAP
00
00
7E
81
A5
81
81
BD
99
81
81
7E
00
00
ENDCHAR
STARTCHAR u0000
ENCODING 0
SWIDTH 666 0
DWIDTH 8 0
BBX 8 14 0 -4
BITMAP
00
00
00
00
00
00
00
00
00
00
00
00
00
00
ENDCHAR
STARTCHAR u0017
ENCODING 23
SWIDTH 666 0
DWIDTH 8 0
BBX 8 14 0 -4
BITMAP
00
00
18
3C
7E
18
18
18
7E
3C
18
7E
00
00
ENDCHAR
STARTCHAR u0060
ENCODING 96
SWIDTH 666 0
DWIDTH 8 0
BBX 8 14 0 -4
BITMAP
30
30
18
00
00
00
00
00
00
00
00
00
00
00
ENDCHAR
STARTCHAR u042C
ENCODING 1068
SWIDTH 666 0
DWIDTH 8 0
BBX 8 14 0 -4
BITMAP
00
00
F0
60
60
60
7C
66
66
66
66
FC
00
00
ENDCHAR
STARTCHAR u044D
ENCODING 1101
SWIDTH 666 0
DWIDTH 8 0
BBX 8 14 0 -4
BITMAP
00
00
00
00
00
3C
66
06
1E
06
66
3C
00
00
ENDCHAR
STARTCHAR u2591
ENCODING 9617
SWIDTH 666 0
DWIDTH 8 0
BBX 8 14 0 -4
BITMAP
11
44
11
44
11
44
11
44
11
44
11
44
11
44
ENDCHAR
STARTCHAR u2640
ENCODING 9792
SWIDTH 666 0
DWIDTH 8 0
BBX 8 14 0 -4
BITMAP
00
00
3C
66
66
66
66
3C
18
7E
18
18
00
00
ENDCHAR
STARTCHAR u2524
ENCODING 9508
SWIDTH 666 0
DWIDTH 8 0
BBX 8 14 0 -4
BITMAP
18
18
18
18
18
18
18
F8
18
18
18
18
18
18
ENDCHAR
STARTCHAR u00A0
ENCODING 160
SWIDTH 666 0
DWIDTH 8 0
BBX 8 14 0 -4
BITMAP
00
00
00
00
00
00
00
00
00
00
00
00
00
00
ENDCHAR
STARTCHAR u0401
ENCODING 1025
SWIDTH 666 0
DWIDTH 8 0
BBX 8 14 0 -4
BITMAP
00
00
00
00
FE
00
00
FE
00
00
FE
00
00
00
ENDCHAR
STARTCHAR u2551
ENCODING 9553
SWIDTH 666 0
DWIDTH 8 0
BBX 8 14 0 -4
BITMAP
36
36
36
36
36
36
36
36
36
36
36
36
36
36
ENDCHAR
STARTCHAR u041E
ENCODING 1054
SWIDTH 666 0
DWIDTH 8 0
BBX 8 14 0 -4
BITMAP
00
00
7C
C6
C6
C6
C6
C6
C6
C6
C6
7C
00
00
ENDCHAR
STARTCHAR u002F
ENCODING 47
SWIDTH 666 0
DWIDTH 8 0
BBX 8 14 0 -4
BITMAP
00
00
00
00
02
06
0C
18
30
60
C0
80
00
00
ENDCHAR
STARTCHAR u25D8
ENCODING 9688
SWIDTH 666 0
DWIDTH 8 0
BBX 8 14 0 -4
BITMAP
FF
FF
FF
FF
FF
FF
E7
C3
C3
E7
FF
FF
FF
FF
ENDCHAR
STARTCHAR u0008
ENCODING 8
SWIDTH 666 0
DWIDTH 8 0
BBX 8 14 0 -4
BITMAP
FF
FF
FF
FF
FF
FF
E7
C3
C3
E7
FF
FF
FF
FF
ENDCHAR
STARTCHAR u0062
ENCODING 98
SWIDTH 666 0
DWIDTH 8 0
BBX 8 14 0 -4
BITMAP
00
00
E0
60
60
78
6C
66
66
66
66
7C
00
00
ENDCHAR
STARTCHAR u0418
ENCODING 1048
SWIDTH 666 0
DWIDTH 8 0
BBX 8 14 0 -4
BITMAP
00
00
C6
C6
CE
CE
D6
E6
E6
C6
C6
C6
00
00
ENDCHAR
STARTCHAR u2584
ENCODING 9604
SWIDTH 666 0
DWIDTH 8 0
BBX 8 14 0 -4
BITMAP
00
00
00
00
00
00
00
FF
FF
FF
FF
FF
FF
FF
ENDCHAR
STARTCHAR u0025
ENCODING 37
SWIDTH 666 0
DWIDTH 8 0
BBX 8 14 0 -4
BITMAP
00
00
00
00
C2
C6
0C
18
30
60
C6
86
00
00
ENDCHAR
STARTCHAR u0425
ENCODING 1061
SWIDTH 666 0
DWIDTH 8 0
BBX 8 14 0 -4
BITMAP
00
00
C6
C6
6C
7C
38
38
7C
6C
C6
C6
00
00
ENDCHAR
STARTCHAR u002B
ENCODING 43
SWIDTH 666 0
DWIDTH 8 0
BBX 8 14 0 -4
BITMAP
00
00
00
00
00
18
18
7E
18
18
00
00
00
00
ENDCHAR
STARTCHAR u0005
ENCODING 5
SWIDTH 666 0
DWIDTH 8 0
BBX 8 14 0 -4
BITMAP
00
00
00
18
3C
3C
E7
E7
E7
18
18
3C
00
00
ENDCHAR
STARTCHAR u0421
ENCODING 1057
SWIDTH 666 0
DWIDTH 8 0
BBX 8 14 0 -4
BITMAP
00
00
3C
66
C2
C0
C0
C0
C0
C2
66
3C
00
00
ENDCHAR
STARTCHAR u2660
ENCODING 9824
SWIDTH 666 0
DWIDTH 8 0
BBX 8 14 0 -4
BITMAP
00
00
00
18
3C
7E
FF
FF
7E
18
18
3C
00
00
ENDCHAR
STARTCHAR u25BA
ENCODING 9658
SWIDTH 666 0
DWIDTH 8 0
BBX 8 14 0 -4
BITMAP
00
80
C0
E0
F0
F8
FC
F8
F0
E0
C0
80
00
00
ENDCHAR
STARTCHAR u0015
ENCODING 21
SWIDTH 666 0
DWIDTH 8 0
BBX 8 14 0 -4
BITMAP
00
7C
C6
60
38
6C
C6
C6
6C
38
0C
C6
7C
00
ENDCHAR
STARTCHAR u263B
ENCODING 9787
SWIDTH 666 0
DWIDTH 8 0
BBX 8 14 0 -4
BITMAP
00
00
7E
FF
DB
FF
FF
C3
E7
FF
FF
7E
00
00
ENDCHAR
STARTCHAR u221F
ENCODING 8735
SWIDTH 666 0
DWIDTH 8 0
BBX 8 14 0 -4
BITMAP
00
00
00
00
00
00
C0
C0
C0
FE
00
00
00
00
ENDCHAR
STARTCHAR u25D9
ENCODING 9689
SWIDTH 666 0
DWIDTH 8 0
BBX 8 14 0 -4
BITMAP
FF
FF
FF
FF
FF
C3
99
BD
BD
99
C3
FF
FF
FF
ENDCHAR
STARTCHAR u251C
ENCODING 9500
SWIDTH 666 0
DWIDTH 8 0
BBX 8 14 0 -4
BITMAP
18
18
18
18
18
18
18
1F
18
18
18
18
18
18
ENDCHAR
STARTCHAR u2555
ENCODING 9557
SWIDTH 666 0
DWIDTH 8 0
BBX 8 14 0 -4
BITMAP
00
00
00
00
00
F8
18
F8
18
18
18
18
18
18
ENDCHAR
STARTCHAR u0077
ENCODING 119
SWIDTH 666 0
DWIDTH 8 0
BBX 8 14 0 -4
BITMAP
00
00
00
00
00
C6
C6
D6
D6
D6
FE
6C
00
00
ENDCHAR
STARTCHAR u0410
ENCODING 1040
SWIDTH 666 0
DWIDTH 8 0
BBX 8 14 0 -4
BITMAP
00
00
1E
36
66
C6
C6
FE
C6
C6
C6
C6
00
00
ENDCHAR
STARTCHAR u004A
ENCODING 74
SWIDTH 666 0
DWIDTH 8 0
BBX 8 14 0 -4
BITMAP
00
00
1E
0C
0C
0C
0C
0C
CC
CC
CC
78
00
00
ENDCHAR
STARTCHAR u003D
ENCODING 61
SWIDTH 666 0
DWIDTH 8 0
BBX 8 14 0 -4
BITMAP
00
00
00
00
00
7E
00
00
7E
00
00
00
00
00
ENDCHAR
STARTCHAR u0073
ENCODING 115
SWIDTH 666 0
DWIDTH 8 0
BBX 8 14 0 -4
BITMAP
00
00
00
00
00
7C
C6
60
38
0C
C6
7C
00
00
ENDCHAR
STARTCHAR u2510
ENCODING 9488
SWIDTH 666 0
DWIDTH 8 0
BBX 8 14 0 -4
BITMAP
00
00
00
00
00
00
00
F8
18
18
18
18
18
18
ENDCHAR
STARTCHAR u0067
ENCODING 103
SWIDTH 666 0
DWIDTH 8 0
BBX 8 14 0 -4
BITMAP
00
00
00
00
00
76
CC
CC
CC
7C
0C
CC
78
00
ENDCHAR
STARTCHAR u255D
ENCODING 9565
SWIDTH 666 0
DWIDTH 8 0
BBX 8 14 0 -4
BITMAP
36
36
36
36
36
F6
06
FE
00
00
00
00
00
00
ENDCHAR
STARTCHAR u207F
ENCODING 8319
SWIDTH 666 0
DWIDTH 8 0
BBX 8 14 0 -4
BITMAP
00
00
00
3C
42
99
A5
A1
A5
99
42
3C
00
00
ENDCHAR
STARTCHAR u2564
ENCODING 9572
SWIDTH 666 0
DWIDTH 8 0
BBX 8 14 0 -4
BITMAP
00
00
00
00
00
FF
00
FF
18
18
18
18
18
18
ENDCHAR
STARTCHAR u0414
ENCODING 1044
SWIDTH 666 0
DWIDTH 8 0
BBX 8 14 0 -4
BITMAP
00
00
1E
36
66
66
66
66
66
66
66
FF
C3
81
ENDCHAR
STARTCHAR u0430
ENCODING 1072
SWIDTH 666 0
DWIDTH 8 0
BBX 8 14 0 -4
BITMAP
00
00
00
00
00
78
0C
7C
CC
CC
CC
76
00
00
ENDCHAR
STARTCHAR u0071
ENCODING 113
SWIDTH 666 0
DWIDTH 8 0
BBX 8 14 0 -4
BITMAP
00
00
00
00
00
76
CC
CC
CC
CC
7C
0C
1E
00
ENDCHAR
STARTCHAR u005B
ENCODING 91
SWIDTH 666 0
DWIDTH 8 0
BBX 8 14 0 -4
BITMAP
00
00
3C
30
30
30
30
30
30
30
30
3C
00
00
ENDCHAR
STARTCHAR u2321
ENCODING 8993
SWIDTH 666 0
DWIDTH 8 0
BBX 8 14 0 -4
BITMAP
18
18
18
18
18
18
18
18
D8
D8
D8
70
00
00
ENDCHAR
STARTCHAR u043E
ENCODING 1086
SWIDTH 666 0
DWIDTH 8 0
BBX 8 14 0 -4
BITMAP
00
00
00
00
00
7C
C6
C6
C6
C6
C6
7C
00
00
ENDCHAR
STARTCHAR u006B
ENCODING 107
SWIDTH 666 0
DWIDTH 8 0
BBX 8 14 0 -4
BITMAP
00
00
E0
60
60
66
6C
78
78
6C
66
E6
00
00
ENDCHAR
STARTCHAR u0420
ENCODING 1056
SWIDTH 666 0
DWIDTH 8 0
BBX 8 14 0 -4
BITMAP
00
00
FC
66
66
66
7C
60
60
60
60
F0
00
00
ENDCHAR
STARTCHAR u0057
ENCODING 87
SWIDTH 666 0
DWIDTH 8 0
BBX 8 14 0 -4
BITMAP
00
00
C6
C6
C6
C6
D6
D6
D6
FE
EE
6C
00
00
ENDCHAR
STARTCHAR u004D
ENCODING 77
SWIDTH 666 0
DWIDTH 8 0
BBX 8 14 0 -4
BITMAP
00
00
C6
EE
FE
FE
D6
C6
C6
C6
C6
C6
00
00
ENDCHAR
STARTCHAR u256B
ENCODING 9579
SWIDTH 666 0
DWIDTH 8 0
BBX 8 14 0 -4
BITMAP
36
36
36
36
36
36
36
FF
36
36
36
36
36
36
ENDCHAR
STARTCHAR u2556
ENCODING 9558
SWIDTH 666 0
DWIDTH 8 0
BBX 8 14 0 -4
BITMAP
00
00
00
00
00
00
00
FE
36
36
36
36
36
36
ENDCHAR
STARTCHAR u0027
ENCODING 39
SWIDTH 666 0
DWIDTH 8 0
BBX 8 14 0 -4
BITMAP
00
30
30
30
60
00
00
00
00
00
00
00
00
00
ENDCHAR
STARTCHAR u0040
ENCODING 64
SWIDTH 666 0
DWIDTH 8 0
BBX 8 14 0 -4
BITMAP
00
00
00
7C
C6
C6
DE
DE
DE
DC
C0
7C
00
00
ENDCHAR
STARTCHAR u0061
ENCODING 97
SWIDTH 666 0
DWIDTH 8 0
BBX 8 14 0 -4
BITMAP
00
00
00
00
00
78
0C
7C
CC
CC
CC
76
00
00
ENDCHAR
STARTCHAR u0441
ENCODING 1089
SWIDTH 666 0
DWIDTH 8 0
BBX 8 14 0 -4
BITMAP
00
00
00
00
00
7C
C6
C0
C0
C0
C6
7C
00
00
ENDCHAR
STARTCHAR u000C
ENCODING 12
SWIDTH 666 0
DWIDTH 8 0
BBX 8 14 0 -4
BITMAP
00
00
3C
66
66
66
66
3C
18
7E
18
18
00
00
ENDCHAR
STARTCHAR u0029
ENCODING 41
SWIDTH 666 0
DWIDTH 8 0
BBX 8 14 0 -4
BITMAP
00
00
30
18
0C
0C
0C
0C
0C
0C
18
30
00
00
ENDCHAR
STARTCHAR u0034
ENCODING 52
SWIDTH 666 0
DWIDTH 8 0
BBX 8 14 0 -4
BITMAP
00
00
0C
1C
3C
6C
CC
FE
0C
0C
0C
1E
00
00
ENDCHAR
STARTCHAR u2567
ENCODING 9575
SWIDTH 666 0
DWIDTH 8 0
BBX 8 14 0 -4
BITMAP
18
18
18
18
18
FF
00
FF
00
00
00
00
00
00
ENDCHAR
STARTCHAR u2502
ENCODING 9474
SWIDTH 666 0
DWIDTH 8 0
BBX 8 14 0 -4
BITMAP
18
18
18
18
18
18
18
18
18
18
18
18
18
18
ENDCHAR
STARTCHAR u002D
ENCODING 45
SWIDTH 666 0
DWIDTH 8 0
BBX 8 14 0 -4
BITMAP
00
00
00
00
00
00
00
FE
00
00
00
00
00
00
ENDCHAR
STARTCHAR u0444
ENCODING 1092
SWIDTH 666 0
DWIDTH 8 0
BBX 8 14 0 -4
BITMAP
00
00
00
00
3C
18
7E
DB
DB
DB
7E
18
3C
00
ENDCHAR
STARTCHAR u258C
ENCODING 9612
SWIDTH 666 0
DWIDTH 8 0
BBX 8 14 0 -4
BITMAP
F0
F0
F0
F0
F0
F0
F0
F0
F0
F0
F0
F0
F0
F0
ENDCHAR
STARTCHAR u043C
ENCODING 1084
SWIDTH 666 0
DWIDTH 8 0
BBX 8 14 0 -4
BITMAP
00
00
00
00
00
C6
EE
FE
FE
D6
D6
C6
00
00
ENDCHAR
STARTCHAR u2191
ENCODING 8593
SWIDTH 666 0
DWIDTH 8 0
BBX 8 14 0 -4
BITMAP
00
00
18
3C
7E
18
18
18
18
18
18
18
00
00
ENDCHAR
STARTCHAR u0044
ENCODING 68
SWIDTH 666 0
DWIDTH 8 0
BBX 8 14 0 -4
BITMAP
00
00
F8
6C
66
66
66
66
66
66
6C
F8
00
00
ENDCHAR
STARTCHAR u266B
ENCODING 9835
SWIDTH 666 0
DWIDTH 8 0
BBX 8 14 0 -4
BITMAP
00
00
7F
63
7F
63
63
63
63
67
E7
E6
C0
00
ENDCHAR
STARTCHAR u0001
ENCODING 1
SWIDTH 666 0
DWIDTH 8 0
BBX 8 14 0 -4
BITMAP
00
00
7E
81
A5
81
81
BD
99
81
81
7E
00
00
ENDCHAR
STARTCHAR u0074
ENCODING 116
SWIDTH 666 0
DWIDTH 8 0
BBX 8 14 0 -4
BITMAP
00
00
10
30
30
FC
30
30
30
30
36
1C
00
00
ENDCHAR
STARTCHAR u0449
ENCODING 1097
SWIDTH 666 0
DWIDTH 8 0
BBX 8 14 0 -4
BITMAP
00
00
00
00
00
D6
D6
D6
D6
D6
D6
FE
03
00
ENDCHAR
STARTCHAR u21A8
ENCODING 8616
SWIDTH 666 0
DWIDTH 8 0
BBX 8 14 0 -4
BITMAP
00
00
18
3C
7E
18
18
18
7E
3C
18
7E
00
00
ENDCHAR
STARTCHAR u0064
ENCODING 100
SWIDTH 666 0
DWIDTH 8 0
BBX 8 14 0 -4
BITMAP
00
00
1C
0C
0C
3C
6C
CC
CC
CC
CC
76
00
00
ENDCHAR
STARTCHAR u0019
ENCODING 25
SWIDTH 666 0
DWIDTH 8 0
BBX 8 14 0 -4
BITMAP
00
00
18
18
18
18
18
18
18
7E
3C
18
00
00
ENDCHAR
STARTCHAR u0078
ENCODING 120
SWIDTH 666 0
DWIDTH 8 0
BBX 8 14 0 -4
BITMAP
00
00
00
00
00
C6
6C
38
38
38
6C
C6
00
00
ENDCHAR
STARTCHAR u0053
ENCODING 83
SWIDTH 666 0
DWIDTH 8 0
BBX 8 14 0 -4
BITMAP
00
00
7C
C6
C6
60
38
0C
06
C6
C6
7C
00
00
ENDCHAR
STARTCHAR u0433
ENCODING 1075
SWIDTH 666 0
DWIDTH 8 0
BBX 8 14 0 -4
BITMAP
00
00
00
00
00
7E
32
32
30
30
30
78
00
00
ENDCHAR
STARTCHAR u2194
ENCODING 8596
SWIDTH 666 0
DWIDTH 8 0
BBX 8 14 0 -4
BITMAP
00
00
00
00
00
28
6C
FE
6C
28
00
00
00
00
ENDCHAR
STARTCHAR u0436
ENCODING 1078
SWIDTH 666 0
DWIDTH 8 0
BBX 8 14 0 -4
BITMAP
00
00
00
00
00
D6
D6
54
7C
54
D6
D6
00
00
ENDCHAR
STARTCHAR u043D
ENCODING 1085
SWIDTH 666 0
DWIDTH 8 0
BBX 8 14 0 -4
BITMAP
00
00
00
00
00
C6
C6
C6
FE
C6
C6
C6
00
00
ENDCHAR
STARTCHAR u2560
ENCODING 9568
SWIDTH 666 0
DWIDTH 8 0
BBX 8 14 0 -4
BITMAP
36
36
36
36
36
37
30
37
36
36
36
36
36
36
ENDCHAR
STARTCHAR u007A
ENCODING 122
SWIDTH 666 0
DWIDTH 8 0
BBX 8 14 0 -4
BITMAP
00
00
00
00
00
FE
CC
18
30
60
C6
FE
00
00
ENDCHAR
STARTCHAR u203C
ENCODING 8252
SWIDTH 666 0
DWIDTH 8 0
BBX 8 14 0 -4
BITMAP
00
00
66
66
66
66
66
66
66
00
66
66
00
00
ENDCHAR
STARTCHAR u0016
ENCODING 22
SWIDTH 666 0
DWIDTH 8 0
BBX 8 14 0 -4
BITMAP
00
00
00
00
00
00
00
00
FE
FE
FE
FE
00
00
ENDCHAR
STARTCHAR u002A
ENCODING 42
SWIDTH 666 0
DWIDTH 8 0
BBX 8 14 0 -4
BITMAP
00
00
00
00
00
66
3C
FF
3C
66
00
00
00
00
ENDCHAR
STARTCHAR u002E
ENCODING 46
SWIDTH 666 0
DWIDTH 8 0
BBX 8 14 0 -4
BITMAP
00
00
00
00
00
00
00
00
00
00
18
18
00
00
ENDCHAR
STARTCHAR u0431
ENCODING 1073
SWIDTH 666 0
DWIDTH 8 0
BBX 8 14 0 -4
BITMAP
00
02
06
3C
60
60
7C
66
66
66
66
3C
00
00
ENDCHAR
STARTCHAR u255B
ENCODING 9563
SWIDTH 666 0
DWIDTH 8 0
BBX 8 14 0 -4
BITMAP
18
18
18
18
18
F8
18
F8
00
00
00
00
00
00
ENDCHAR
STARTCHAR u041B
ENCODING 1051
SWIDTH 666 0
DWIDTH 8 0
BBX 8 14 0 -4
BITMAP
00
00
1E
36
66
C6
C6
C6
C6
C6
C6
C6
00
00
ENDCHAR
STARTCHAR u0006
ENCODING 6
SWIDTH 666 0
DWIDTH 8 0
BBX 8 14 0 -4
BITMAP
00
00
00
18
3C
7E
FF
FF
7E
18
18
3C
00
00
ENDCHAR
STARTCHAR u0024
ENCODING 36
SWIDTH 666 0
DWIDTH 8 0
BBX 8 14 0 -4
BITMAP
00
18
7C
C6
C2
C0
7C
06
06
86
C6
7C
18
00
ENDCHAR
STARTCHAR u00B7
ENCODING 183
SWIDTH 666 0
DWIDTH 8 0
BBX 8 14 0 -4
BITMAP
00
00
00
00
00
00
00
00
18
00
00
00
00
00
ENDCHAR
STARTCHAR u044E
ENCODING 1102
SWIDTH 666 0
DWIDTH 8 0
BBX 8 14 0 -4
BITMAP
00
00
00
00
00
CE
DB
DB
FB
DB
DB
CE
00
00
ENDCHAR
STARTCHAR u005E
ENCODING 94
SWIDTH 666 0
DWIDTH 8 0
BBX 8 14 0 -4
BITMAP
10
38
6C
C6
00
00
00
00
00
00
00
00
00
00
ENDCHAR
STARTCHAR u25B6
ENCODING 9654
SWIDTH 666 0
DWIDTH 8 0
BBX 8 14 0 -4
BITMAP
00
80
C0
E0
F0
F8
FC
F8
F0
E0
C0
80
00
00
ENDCHAR
STARTCHAR u0033
ENCODING 51
SWIDTH 666 0
DWIDTH 8 0
BBX 8 14 0 -4
BITMAP
00
00
7C
C6
06
06
3C
06
06
06
C6
7C
00
00
ENDCHAR
STARTCHAR u044F
ENCODING 1103
SWIDTH 666 0
DWIDTH 8 0
BBX 8 14 0 -4
BITMAP
00
00
00
00
00
7E
CC
CC
FC
6C
CC
CE
00
00
ENDCHAR
STARTCHAR u0426
ENCODING 1062
SWIDTH 666 0
DWIDTH 8 0
BBX 8 14 0 -4
BITMAP
00
00
CC
CC
CC
CC
CC
CC
CC
CC
CC
FE
06
00
ENDCHAR
STARTCHAR u2248
ENCODING 8776
SWIDTH 666 0
DWIDTH 8 0
BBX 8 14 0 -4
BITMAP
00
00
00
00
00
76
DC
00
76
DC
00
00
00
00
ENDCHAR
STARTCHAR u255E
ENCODING 9566
SWIDTH 666 0
DWIDTH 8 0
BBX 8 14 0 -4
BITMAP
18
18
18
18
18
1F
18
1F
18
18
18
18
18
18
ENDCHAR
STARTCHAR u0012
ENCODING 18
SWIDTH 666 0
DWIDTH 8 0
BBX 8 14 0 -4
BITMAP
00
00
18
3C
7E
18
18
18
7E
3C
18
00
00
00
ENDCHAR
STARTCHAR u25CB
ENCODING 9675
SWIDTH 666 0
DWIDTH 8 0
BBX 8 14 0 -4
BITMAP
00
00
00
00
00
3C
66
42
42
66
3C
00
00
00
ENDCHAR
STARTCHAR u007D
ENCODING 125
SWIDTH 666 0
DWIDTH 8 0
BBX 8 14 0 -4
BITMAP
00
00
70
18
18
18
0E
18
18
18
18
70
00
00
ENDCHAR
STARTCHAR u002C
ENCODING 44
SWIDTH 666 0
DWIDTH 8 0
BBX 8 14 0 -4
BITMAP
00
00
00
00
00
00
00
00
00
18
18
18
30
00
ENDCHAR
STARTCHAR u001B
ENCODING 27
SWIDTH 666 0
DWIDTH 8 0
BBX 8 14 0 -4
BITMAP
00
00
00
00
00
30
60
FE
60
30
00
00
00
00
ENDCHAR
STARTCHAR u005F
ENCODING 95
SWIDTH 666 0
DWIDTH 8 0
BBX 8 14 0 -4
BITMAP
00
00
00
00
00
00
00
00
00
00
00
00
FF
00
ENDCHAR
STARTCHAR u266C
ENCODING 9836
SWIDTH 666 0
DWIDTH 8 0
BBX 8 14 0 -4
BITMAP
00
00
7F
63
7F
63
63
63
63
67
E7
E6
C0
00
ENDCHAR
STARTCHAR u0014
ENCODING 20
SWIDTH 666 0
DWIDTH 8 0
BBX 8 14 0 -4
BITMAP
00
00
7F
DB
DB
DB
7B
1B
1B
1B
1B
1B
00
00
ENDCHAR
STARTCHAR u006D
ENCODING 109
SWIDTH 666 0
DWIDTH 8 0
BBX 8 14 0 -4
BITMAP
00
00
00
00
00
EC
FE
D6
D6
D6
D6
C6
00
00
ENDCHAR
STARTCHAR u2534
ENCODING 9524
SWIDTH 666 0
DWIDTH 8 0
BBX 8 14 0 -4
BITMAP
18
18
18
18
18
18
18
FF
00
00
00
00
00
00
ENDCHAR
STARTCHAR u2666
ENCODING 9830
SWIDTH 666 0
DWIDTH 8 0
BBX 8 14 0 -4
BITMAP
00
00
00
00
10
38
7C
FE
7C
38
10
00
00
00
ENDCHAR
STARTCHAR u263C
ENCODING 9788
SWIDTH 666 0
DWIDTH 8 0
BBX 8 14 0 -4
BITMAP
00
00
00
18
18
DB
3C
E7
3C
DB
18
18
00
00
ENDCHAR
STARTCHAR u0422
ENCODING 1058
SWIDTH 666 0
DWIDTH 8 0
BBX 8 14 0 -4
BITMAP
00
00
7E
5A
18
18
18
18
18
18
18
3C
00
00
ENDCHAR
STARTCHAR u004E
ENCODING 78
SWIDTH 666 0
DWIDTH 8 0
BBX 8 14 0 -4
BITMAP
00
00
C6
E6
F6
FE
DE
CE
C6
C6
C6
C6
00
00
ENDCHAR
STARTCHAR u006A
ENCODING 106
SWIDTH 666 0
DWIDTH 8 0
BBX 8 14 0 -4
BITMAP
00
00
00
06
00
0E
06
06
06
06
66
66
3C
00
ENDCHAR
STARTCHAR u0448
ENCODING 1096
SWIDTH 666 0
DWIDTH 8 0
BBX 8 14 0 -4
BITMAP
00
00
00
00
00
D6
D6
D6
D6
D6
D6
FE
00
00
ENDCHAR
STARTCHAR u0041
ENCODING 65
SWIDTH 666 0
DWIDTH 8 0
BBX 8 14 0 -4
BITMAP
00
00
10
38
6C
C6
C6
FE
C6
C6
C6
C6
00
00
ENDCHAR
STARTCHAR u2193
ENCODING 8595
SWIDTH 666 0
DWIDTH 8 0
BBX 8 14 0 -4
BITMAP
00
00
18
18
18
18
18
18
18
7E
3C
18
00
00
ENDCHAR
STARTCHAR u0445
ENCODING 1093
SWIDTH 666 0
DWIDTH 8 0
BBX 8 14 0 -4
BITMAP
00
00
00
00
00
C6
6C
38
38
38
6C
C6
00
00
ENDCHAR
STARTCHAR u0051
ENCODING 81
SWIDTH 666 0
DWIDTH 8 0
BBX 8 14 0 -4
BITMAP
00
00
7C
C6
C6
C6
C6
C6
C6
D6
DE
7C
0E
00
ENDCHAR
STARTCHAR u003C
ENCODING 60
SWIDTH 666 0
DWIDTH 8 0
BBX 8 14 0 -4
BITMAP
00
00
00
06
0C
18
30
60
30
18
0C
06
00
00
ENDCHAR
STARTCHAR u042B
ENCODING 1067
SWIDTH 666 0
DWIDTH 8 0
BBX 8 14 0 -4
BITMAP
00
00
C3
C3
C3
C3
F3
DB
DB
DB
DB
F3
00
00
ENDCHAR
STARTCHAR u2592
ENCODING 9618
SWIDTH 666 0
DWIDTH 8 0
BBX 8 14 0 -4
BITMAP
55
AA
55
AA
55
AA
55
AA
55
AA
55
AA
55
AA
ENDCHAR
STARTCHAR u2320
ENCODING 8992
SWIDTH 666 0
DWIDTH 8 0
BBX 8 14 0 -4
BITMAP
00
00
0E
1B
1B
18
18
18
18
18
18
18
18
18
ENDCHAR
STARTCHAR u0056
ENCODING 86
SWIDTH 666 0
DWIDTH 8 0
BBX 8 14 0 -4
BITMAP
00
00
C6
C6
C6
C6
C6
C6
C6
6C
38
10
00
00
ENDCHAR
STARTCHAR u00F7
ENCODING 247
SWIDTH 666 0
DWIDTH 8 0
BBX 8 14 0 -4
BITMAP
00
00
00
00
18
18
00
7E
00
18
18
00
00
00
ENDCHAR
STARTCHAR u0432
ENCODING 1074
SWIDTH 666 0
DWIDTH 8 0
BBX 8 14 0 -4
BITMAP
00
00
00
00
00
FC
66
66
7C
66
66
FC
00
00
ENDCHAR
STARTCHAR u0437
ENCODING 1079
SWIDTH 666 0
DWIDTH 8 0
BBX 8 14 0 -4
BITMAP
00
00
00
00
00
3C
66
06
0C
06
66
3C
00
00
ENDCHAR
STARTCHAR u0411
ENCODING 1041
SWIDTH 666 0
DWIDTH 8 0
BBX 8 14 0 -4
BITMAP
00
00
FE
62
62
60
7C
66
66
66
66
FC
00
00
ENDCHAR
STARTCHAR u0011
ENCODING 17
SWIDTH 666 0
DWIDTH 8 0
BBX 8 14 0 -4
BITMAP
00
02
06
0E
1E
3E
7E
3E
1E
0E
06
02
00
00
ENDCHAR
STARTCHAR u0002
ENCODING 2
SWIDTH 666 0
DWIDTH 8 0
BBX 8 14 0 -4
BITMAP
00
00
7E
FF
DB
FF
FF
C3
E7
FF
FF
7E
00
00
ENDCHAR
STARTCHAR u0427
ENCODING 1063
SWIDTH 666 0
DWIDTH 8 0
BBX 8 14 0 -4
BITMAP
00
00
C6
C6
C6
C6
C6
7E
06
06
06
06
00
00
ENDCHAR
STARTCHAR u0052
ENCODING 82
SWIDTH 666 0
DWIDTH 8 0
BBX 8 14 0 -4
BITMAP
00
00
FC
66
66
66
7C
6C
66
66
66
E6
00
00
ENDCHAR
STARTCHAR u006E
ENCODING 110
SWIDTH 666 0
DWIDTH 8 0
BBX 8 14 0 -4
BITMAP
00
00
00
00
00
DC
66
66
66
66
66
66
00
00
ENDCHAR
STARTCHAR u25C4
ENCODING 9668
SWIDTH 666 0
DWIDTH 8 0
BBX 8 14 0 -4
BITMAP
00
02
06
0E
1E
3E
7E
3E
1E
0E
06
02
00
00
ENDCHAR
STARTCHAR u2663
ENCODING 9827
SWIDTH 666 0
DWIDTH 8 0
BBX 8 14 0 -4
BITMAP
00
00
00
18
3C
3C
E7
E7
E7
18
18
3C
00
00
ENDCHAR
STARTCHAR u0416
ENCODING 1046
SWIDTH 666 0
DWIDTH 8 0
BBX 8 14 0 -4
BITMAP
00
00
D6
D6
54
54
7C
7C
54
D6
D6
D6
00
00
ENDCHAR
STARTCHAR u0045
ENCODING 69
SWIDTH 666 0
DWIDTH 8 0
BBX 8 14 0 -4
BITMAP
00
00
FE
66
62
68
78
68
60
62
66
FE
00
00
ENDCHAR
STARTCHAR u0070
ENCODING 112
SWIDTH 666 0
DWIDTH 8 0
BBX 8 14 0 -4
BITMAP
00
00
00
00
00
DC
66
66
66
66
7C
60
F0
00
ENDCHAR
STARTCHAR u2642
ENCODING 9794
SWIDTH 666 0
DWIDTH 8 0
BBX 8 14 0 -4
BITMAP
00
00
1E
0E
1A
32
78
CC
CC
CC
CC
78
00
00
ENDCHAR
STARTCHAR u041C
ENCODING 1052
SWIDTH 666 0
DWIDTH 8 0
BBX 8 14 0 -4
BITMAP
00
00
C6
EE
FE
FE
D6
C6
C6
C6
C6
C6
00
00
ENDCHAR
STARTCHAR u0413
ENCODING 1043
SWIDTH 666 0
DWIDTH 8 0
BBX 8 14 0 -4
BITMAP
00
00
FE
62
62
60
60
60
60
60
60
F0
00
00
ENDCHAR
STARTCHAR u2264
ENCODING 8804
SWIDTH 666 0
DWIDTH 8 0
BBX 8 14 0 -4
BITMAP
00
00
00
0C
18
30
60
30
18
0C
00
7E
00
00
ENDCHAR
STARTCHAR u043A
ENCODING 1082
SWIDTH 666 0
DWIDTH 8 0
BBX 8 14 0 -4
BITMAP
00
00
00
00
00
E6
6C
78
78
6C
66
E6
00
00
ENDCHAR
STARTCHAR u004F
ENCODING 79
SWIDTH 666 0
DWIDTH 8 0
BBX 8 14 0 -4
BITMAP
00
00
7C
C6
C6
C6
C6
C6
C6
C6
C6
7C
00
00
ENDCHAR
STARTCHAR u0079
ENCODING 121
SWIDTH 666 0
DWIDTH 8 0
BBX 8 14 0 -4
BITMAP
00
00
00
00
00
C6
C6
C6
C6
7E
06
C6
7C
00
ENDCHAR
STARTCHAR u042A
ENCODING 1066
SWIDTH 666 0
DWIDTH 8 0
BBX 8 14 0 -4
BITMAP
00
00
F8
B0
30
30
3C
36
36
36
36
7C
00
00
ENDCHAR
STARTCHAR u2518
ENCODING 9496
SWIDTH 666 0
DWIDTH 8 0
BBX 8 14 0 -4
BITMAP
18
18
18
18
18
18
18
F8
00
00
00
00
00
00
ENDCHAR
STARTCHAR u042F
ENCODING 1071
SWIDTH 666 0
DWIDTH 8 0
BBX 8 14 0 -4
BITMAP
00
00
3F
66
66
66
3E
3E
66
66
66
E7
00
00
ENDCHAR
STARTCHAR u2588
ENCODING 9608
SWIDTH 666 0
DWIDTH 8 0
BBX 8 14 0 -4
BITMAP
FF
FF
FF
FF
FF
FF
FF
FF
FF
FF
FF
FF
FF
FF
ENDCHAR
STARTCHAR u25B2
ENCODING 9650
SWIDTH 666 0
DWIDTH 8 0
BBX 8 14 0 -4
BITMAP
00
00
00
00
10
38
38
7C
7C
FE
FE
00
00
00
ENDCHAR
STARTCHAR u007E
ENCODING 126
SWIDTH 666 0
DWIDTH 8 0
BBX 8 14 0 -4
BITMAP
00
00
76
DC
00
00
00
00
00
00
00
00
00
00
ENDCHAR
STARTCHAR u256C
ENCODING 9580
SWIDTH 666 0
DWIDTH 8 0
BBX 8 14 0 -4
BITMAP
36
36
36
36
36
F7
00
F7
36
36
36
36
36
36
ENDCHAR
STARTCHAR u2563
ENCODING 9571
SWIDTH 666 0
DWIDTH 8 0
BBX 8 14 0 -4
BITMAP
36
36
36
36
36
F6
06
F6
36
36
36
36
36
36
ENDCHAR
STARTCHAR u00B0
ENCODING 176
SWIDTH 666 0
DWIDTH 8 0
BBX 8 14 0 -4
BITMAP
00
38
6C
6C
38
00
00
00
00
00
00
00
00
00
ENDCHAR
STARTCHAR u2550
ENCODING 9552
SWIDTH 666 0
DWIDTH 8 0
BBX 8 14 0 -4
BITMAP
00
00
00
00
00
FF
00
FF
00
00
00
00
00
00
ENDCHAR
STARTCHAR u2552
ENCODING 9554
SWIDTH 666 0
DWIDTH 8 0
BBX 8 14 0 -4
BITMAP
00
00
00
00
00
1F
18
1F
18
18
18
18
18
18
ENDCHAR
STARTCHAR u25AC
ENCODING 9644
SWIDTH 666 0
DWIDTH 8 0
BBX 8 14 0 -4
BITMAP
00
00
00
00
00
00
00
00
FE
FE
FE
FE
00
00
ENDCHAR
STARTCHAR u043F
ENCODING 1087
SWIDTH 666 0
DWIDTH 8 0
BBX 8 14 0 -4
BITMAP
00
00
00
00
00
FE
C6
C6
C6
C6
C6
C6
00
00
ENDCHAR
STARTCHAR u0075
ENCODING 117
SWIDTH 666 0
DWIDTH 8 0
BBX 8 14 0 -4
BITMAP
00
00
00
00
00
CC
CC
CC
CC
CC
CC
76
00
00
ENDCHAR
STARTCHAR u0021
ENCODING 33
SWIDTH 666 0
DWIDTH 8 0
BBX 8 14 0 -4
BITMAP
00
00
18
3C
3C
3C
18
18
18
00
18
18
00
00
ENDCHAR
STARTCHAR u003F
ENCODING 63
SWIDTH 666 0
DWIDTH 8 0
BBX 8 14 0 -4
BITMAP
00
00
7C
C6
C6
0C
18
18
18
00
18
18
00
00
ENDCHAR
STARTCHAR u0007
ENCODING 7
SWIDTH 666 0
DWIDTH 8 0
BBX 8 14 0 -4
BITMAP
00
00
00
00
00
00
18
3C
3C
18
00
00
00
00
ENDCHAR
STARTCHAR u0050
ENCODING 80
SWIDTH 666 0
DWIDTH 8 0
BBX 8 14 0 -4
BITMAP
00
00
FC
66
66
66
7C
60
60
60
60
F0
00
00
ENDCHAR
STARTCHAR u001A
ENCODING 26
SWIDTH 666 0
DWIDTH 8 0
BBX 8 14 0 -4
BITMAP
00
00
00
00
00
18
0C
FE
0C
18
00
00
00
00
ENDCHAR
STARTCHAR u0063
ENCODING 99
SWIDTH 666 0
DWIDTH 8 0
BBX 8 14 0 -4
BITMAP
00
00
00
00
00
7C
C6
C0
C0
C0
C6
7C
00
00
ENDCHAR
STARTCHAR u0048
ENCODING 72
SWIDTH 666 0
DWIDTH 8 0
BBX 8 14 0 -4
BITMAP
00
00
C6
C6
C6
C6
FE
C6
C6
C6
C6
C6
00
00
ENDCHAR
STARTCHAR u25C0
ENCODING 9664
SWIDTH 666 0
DWIDTH 8 0
BBX 8 14 0 -4
BITMAP
00
02
06
0E
1E
3E
7E
3E
1E
0E
06
02
00
00
ENDCHAR
STARTCHAR u2022
ENCODING 8226
SWIDTH 666 0
DWIDTH 8 0
BBX 8 14 0 -4
BITMAP
00
00
00
00
00
00
18
3C
3C
18
00
00
00
00
ENDCHAR
STARTCHAR u2219
ENCODING 8729
SWIDTH 666 0
DWIDTH 8 0
BBX 8 14 0 -4
BITMAP
00
00
00
00
00
00
00
18
18
00
00
00
00
00
ENDCHAR
STARTCHAR u0451
ENCODING 1105
SWIDTH 666 0
DWIDTH 8 0
BBX 8 14 0 -4
BITMAP
00
00
00
00
18
18
7E
18
18
00
00
FF
00
00
ENDCHAR
STARTCHAR u00B6
ENCODING 182
SWIDTH 666 0
DWIDTH 8 0
BBX 8 14 0 -4
BITMAP
00
00
7F
DB
DB
DB
7B
1B
1B
1B
1B
1B
00
00
ENDCHAR
STARTCHAR u2569
ENCODING 9577
SWIDTH 666 0
DWIDTH 8 0
BBX 8 14 0 -4
BITMAP
36
36
36
36
36
F7
00
FF
00
00
00
00
00
00
ENDCHAR
STARTCHAR u006C
ENCODING 108
SWIDTH 666 0
DWIDTH 8 0
BBX 8 14 0 -4
BITMAP
00
00
38
18
18
18
18
18
18
18
18
3C
00
00
ENDCHAR
STARTCHAR u005C
ENCODING 92
SWIDTH 666 0
DWIDTH 8 0
BBX 8 14 0 -4
BITMAP
00
00
00
80
C0
E0
70
38
1C
0E
06
02
00
00
ENDCHAR
STARTCHAR u041D
ENCODING 1053
SWIDTH 666 0
DWIDTH 8 0
BBX 8 14 0 -4
BITMAP
00
00
C6
C6
C6
C6
FE
C6
C6
C6
C6
C6
00
00
ENDCHAR
STARTCHAR u255A
ENCODING 9562
SWIDTH 666 0
DWIDTH 8 0
BBX 8 14 0 -4
BITMAP
36
36
36
36
36
37
30
3F
00
00
00
00
00
00
ENDCHAR
STARTCHAR u000A
ENCODING 10
SWIDTH 666 0
DWIDTH 8 0
BBX 8 14 0 -4
BITMAP
FF
FF
FF
FF
FF
C3
99
BD
BD
99
C3
FF
FF
FF
ENDCHAR
STARTCHAR u0447
ENCODING 1095
SWIDTH 666 0
DWIDTH 8 0
BBX 8 14 0 -4
BITMAP
00
00
00
00
00
C6
C6
C6
C6
7E
06
06
00
00
ENDCHAR
STARTCHAR u255F
ENCODING 9567
SWIDTH 666 0
DWIDTH 8 0
BBX 8 14 0 -4
BITMAP
36
36
36
36
36
36
36
37
36
36
36
36
36
36
ENDCHAR
STARTCHAR u0439
ENCODING 1081
SWIDTH 666 0
DWIDTH 8 0
BBX 8 14 0 -4
BITMAP
00
00
00
38
38
C6
C6
CE
D6
E6
C6
C6
00
00
ENDCHAR
STARTCHAR u00A7
ENCODING 167
SWIDTH 666 0
DWIDTH 8 0
BBX 8 14 0 -4
BITMAP
00
7C
C6
60
38
6C
C6
C6
6C
38
0C
C6
7C
00
ENDCHAR
STARTCHAR u0030
ENCODING 48
SWIDTH 666 0
DWIDTH 8 0
BBX 8 14 0 -4
BITMAP
00
00
38
6C
C6
C6
D6
D6
C6
C6
6C
38
00
00
ENDCHAR
STARTCHAR u0446
ENCODING 1094
SWIDTH 666 0
DWIDTH 8 0
BBX 8 14 0 -4
BITMAP
00
00
00
00
00
CC
CC
CC
CC
CC
CC
FE
06
00
ENDCHAR
STARTCHAR uFFFD
ENCODING 65533
SWIDTH 666 0
DWIDTH 8 0
BBX 8 14 0 -4
BITMAP
00
00
00
00
00
00
00
00
00
00
00
00
00
00
ENDCHAR
STARTCHAR u007B
ENCODING 123
SWIDTH 666 0
DWIDTH 8 0
BBX 8 14 0 -4
BITMAP
00
00
0E
18
18
18
70
18
18
18
18
0E
00
00
ENDCHAR
STARTCHAR u0032
ENCODING 50
SWIDTH 666 0
DWIDTH 8 0
BBX 8 14 0 -4
BITMAP
00
00
7C
C6
06
0C
18
30
60
C0
C6
FE
00
00
ENDCHAR
STARTCHAR u0434
ENCODING 1076
SWIDTH 666 0
DWIDTH 8 0
BBX 8 14 0 -4
BITMAP
00
00
00
00
00
1E
36
36
66
66
66
FF
C3
00
ENDCHAR
STARTCHAR u2566
ENCODING 9574
SWIDTH 666 0
DWIDTH 8 0
BBX 8 14 0 -4
BITMAP
00
00
00
00
00
FF
00
F7
36
36
36
36
36
36
ENDCHAR
STARTCHAR u0038
ENCODING 56
SWIDTH 666 0
DWIDTH 8 0
BBX 8 14 0 -4
BITMAP
00
00
7C
C6
C6
C6
7C
C6
C6
C6
C6
7C
00
00
ENDCHAR
STARTCHAR u0435
ENCODING 1077
SWIDTH 666 0
DWIDTH 8 0
BBX 8 14 0 -4
BITMAP
00
00
00
00
00
7C
C6
FE
C0
C0
C6
7C
00
00
ENDCHAR
STARTCHAR u0042
ENCODING 66
SWIDTH 666 0
DWIDTH 8 0
BBX 8 14 0 -4
BITMAP
00
00
FC
66
66
66
7C
66
66
66
66
FC
00
00
ENDCHAR
STARTCHAR u0013
ENCODING 19
SWIDTH 666 0
DWIDTH 8 0
BBX 8 14 0 -4
BITMAP
00
00
66
66
66
66
66
66
66
00
66
66
00
00
ENDCHAR
STARTCHAR u0036
ENCODING 54
SWIDTH 666 0
DWIDTH 8 0
BBX 8 14 0 -4
BITMAP
00
00
38
60
C0
C0
FC
C6
C6
C6
C6
7C
00
00
ENDCHAR
STARTCHAR u0046
ENCODING 70
SWIDTH 666 0
DWIDTH 8 0
BBX 8 14 0 -4
BITMAP
00
00
FE
66
62
68
78
68
60
60
60
F0
00
00
ENDCHAR
STARTCHAR u0417
ENCODING 1047
SWIDTH 666 0
DWIDTH 8 0
BBX 8 14 0 -4
BITMAP
00
00
7C
C6
06
06
3C
06
06
06
C6
7C
00
00
ENDCHAR
STARTCHAR u041F
ENCODING 1055
SWIDTH 666 0
DWIDTH 8 0
BBX 8 14 0 -4
BITMAP
00
00
FE
C6
C6
C6
C6
C6
C6
C6
C6
C6
00
00
ENDCHAR
STARTCHAR u0440
ENCODING 1088
SWIDTH 666 0
DWIDTH 8 0
BBX 8 14 0 -4
BITMAP
00
00
00
00
00
DC
66
66
66
66
7C
60
F0
00
ENDCHAR
STARTCHAR u0058
ENCODING 88
SWIDTH 666 0
DWIDTH 8 0
BBX 8 14 0 -4
BITMAP
00
00
C6
C6
6C
7C
38
38
7C
6C
C6
C6
00
00
ENDCHAR
STARTCHAR u001E
ENCODING 30
SWIDTH 666 0
DWIDTH 8 0
BBX 8 14 0 -4
BITMAP
00
00
00
00
10
38
38
7C
7C
FE
FE
00
00
00
ENDCHAR
STARTCHAR u2557
ENCODING 9559
SWIDTH 666 0
DWIDTH 8 0
BBX 8 14 0 -4
BITMAP
00
00
00
00
00
FE
06
F6
36
36
36
36
36
36
ENDCHAR
STARTCHAR u2500
ENCODING 9472
SWIDTH 666 0
DWIDTH 8 0
BBX 8 14 0 -4
BITMAP
00
00
00
00
00
00
00
FF
00
00
00
00
00
00
ENDCHAR
STARTCHAR u001C
ENCODING 28
SWIDTH 666 0
DWIDTH 8 0
BBX 8 14 0 -4
BITMAP
00
00
00
00
00
00
C0
C0
C0
FE
00
00
00
00
ENDCHAR
STARTCHAR u004B
ENCODING 75
SWIDTH 666 0
DWIDTH 8 0
BBX 8 14 0 -4
BITMAP
00
00
E6
66
66
6C
78
78
6C
66
66
E6
00
00
ENDCHAR
STARTCHAR u0028
ENCODING 40
SWIDTH 666 0
DWIDTH 8 0
BBX 8 14 0 -4
BITMAP
00
00
0C
18
30
30
30
30
30
30
18
0C
00
00
ENDCHAR
STARTCHAR u25A0
ENCODING 9632
SWIDTH 666 0
DWIDTH 8 0
BBX 8 14 0 -4
BITMAP
00
00
00
00
7C
7C
7C
7C
7C
7C
7C
00
00
00
ENDCHAR
STARTCHAR u003B
ENCODING 59
SWIDTH 666 0
DWIDTH 8 0
BBX 8 14 0 -4
BITMAP
00
00
00
00
18
18
00
00
00
18
18
30
00
00
ENDCHAR
STARTCHAR u2553
ENCODING 9555
SWIDTH 666 0
DWIDTH 8 0
BBX 8 14 0 -4
BITMAP
00
00
00
00
00
00
00
3F
36
36
36
36
36
36
ENDCHAR
STARTCHAR u0035
ENCODING 53
SWIDTH 666 0
DWIDTH 8 0
BBX 8 14 0 -4
BITMAP
00
00
FE
C0
C0
C0
FC
06
06
06
C6
7C
00
00
ENDCHAR
STARTCHAR u25BC
ENCODING 9660
SWIDTH 666 0
DWIDTH 8 0
BBX 8 14 0 -4
BITMAP
00
00
00
00
FE
FE
7C
7C
38
38
10
00
00
00
ENDCHAR
STARTCHAR u0424
ENCODING 1060
SWIDTH 666 0
DWIDTH 8 0
BBX 8 14 0 -4
BITMAP
00
3C
18
7E
DB
DB
DB
DB
DB
7E
18
3C
00
00
ENDCHAR
STARTCHAR u042E
ENCODING 1070
SWIDTH 666 0
DWIDTH 8 0
BBX 8 14 0 -4
BITMAP
00
00
CE
DB
DB
DB
FB
DB
DB
DB
DB
CE
00
00
ENDCHAR
STARTCHAR u2562
ENCODING 9570
SWIDTH 666 0
DWIDTH 8 0
BBX 8 14 0 -4
BITMAP
36
36
36
36
36
36
36
F6
36
36
36
36
36
36
ENDCHAR
STARTCHAR u2590
ENCODING 9616
SWIDTH 666 0
DWIDTH 8 0
BBX 8 14 0 -4
BITMAP
0F
0F
0F
0F
0F
0F
0F
0F
0F
0F
0F
0F
0F
0F
ENDCHAR
STARTCHAR u252C
ENCODING 9516
SWIDTH 666 0
DWIDTH 8 0
BBX 8 14 0 -4
BITMAP
00
00
00
00
00
00
00
FF
18
18
18
18
18
18
ENDCHAR
STARTCHAR u255C
ENCODING 9564
SWIDTH 666 0
DWIDTH 8 0
BBX 8 14 0 -4
BITMAP
36
36
36
36
36
36
36
FE
00
00
00
00
00
00
ENDCHAR
STARTCHAR u000D
ENCODING 13
SWIDTH 666 0
DWIDTH 8 0
BBX 8 14 0 -4
BITMAP
00
00
3F
33
3F
30
30
30
30
70
F0
E0
00
00
ENDCHAR
STARTCHAR u0428
ENCODING 1064
SWIDTH 666 0
DWIDTH 8 0
BBX 8 14 0 -4
BITMAP
00
00
DB
DB
DB
DB
DB
DB
DB
DB
DB
FF
00
00
ENDCHAR
STARTCHAR u0069
ENCODING 105
SWIDTH 666 0
DWIDTH 8 0
BBX 8 14 0 -4
BITMAP
00
00
18
18
00
38
18
18
18
18
18
3C
00
00
ENDCHAR
STARTCHAR u044C
ENCODING 1100
SWIDTH 666 0
DWIDTH 8 0
BBX 8 14 0 -4
BITMAP
00
00
00
00
00
F0
60
60
7C
66
66
FC
00
00
ENDCHAR
STARTCHAR u0055
ENCODING 85
SWIDTH 666 0
DWIDTH 8 0
BBX 8 14 0 -4
BITMAP
00
00
C6
C6
C6
C6
C6
C6
C6
C6
C6
7C
00
00
ENDCHAR
STARTCHAR u0003
ENCODING 3
SWIDTH 666 0
DWIDTH 8 0
BBX 8 14 0 -4
BITMAP
00
00
00
00
6C
FE
FE
FE
FE
7C
38
10
00
00
ENDCHAR
STARTCHAR u2559
ENCODING 9561
SWIDTH 666 0
DWIDTH 8 0
BBX 8 14 0 -4
BITMAP
36
36
36
36
36
36
36
3F
00
00
00
00
00
00
ENDCHAR
STARTCHAR u0009
ENCODING 9
SWIDTH 666 0
DWIDTH 8 0
BBX 8 14 0 -4
BITMAP
00
00
00
00
00
3C
66
42
42
66
3C
00
00
00
ENDCHAR
STARTCHAR u006F
ENCODING 111
SWIDTH 666 0
DWIDTH 8 0
BBX 8 14 0 -4
BITMAP
00
00
00
00
00
7C
C6
C6
C6
C6
C6
7C
00
00
ENDCHAR
STARTCHAR u044B
ENCODING 1099
SWIDTH 666 0
DWIDTH 8 0
BBX 8 14 0 -4
BITMAP
00
00
00
00
00
C6
C6
C6
F6
DE
DE
F6
00
00
ENDCHAR
STARTCHAR u0412
ENCODING 1042
SWIDTH 666 0
DWIDTH 8 0
BBX 8 14 0 -4
BITMAP
00
00
FC
66
66
66
7C
66
66
66
66
FC
00
00
ENDCHAR
STARTCHAR u0026
ENCODING 38
SWIDTH 666 0
DWIDTH 8 0
BBX 8 14 0 -4
BITMAP
00
00
38
6C
6C
38
76
DC
CC
CC
CC
76
00
00
ENDCHAR
STARTCHAR u0004
ENCODING 4
SWIDTH 666 0
DWIDTH 8 0
BBX 8 14 0 -4
BITMAP
00
00
00
00
10
38
7C
FE
7C
38
10
00
00
00
ENDCHAR
STARTCHAR u0022
ENCODING 34
SWIDTH 666 0
DWIDTH 8 0
BBX 8 14 0 -4
BITMAP
00
66
66
66
24
00
00
00
00
00
00
00
00
00
ENDCHAR
STARTCHAR u2319
ENCODING 8985
SWIDTH 666 0
DWIDTH 8 0
BBX 8 14 0 -4
BITMAP
00
00
00
00
00
00
C0
C0
C0
FE
00
00
00
00
ENDCHAR
STARTCHAR u2593
ENCODING 9619
SWIDTH 666 0
DWIDTH 8 0
BBX 8 14 0 -4
BITMAP
DD
77
DD
77
DD
77
DD
77
DD
77
DD
77
DD
77
ENDCHAR
ENDFONT
